<svg id="layer_1" data-name="layer 1" xmlns="http://www.w3.org/2000/svg" viewBox="0 0 186.89 47.28"><defs><style>.cls-1{fill:#004a7d;}</style></defs><title>Biilabs_2020_LOGO</title><path class="cls-1" d="M77.76,38.51c-2.1,1.62-5.13,2.4-9,2.4H60.06a1.81,1.81,0,0,1-2.05-2V12.21a1.81,1.81,0,0,1,2.05-2.05H70.87A10,10,0,0,1,77,12a7.25,7.25,0,0,1,2.69,5.81A7.15,7.15,0,0,1,74.83,25a7.7,7.7,0,0,1,4.06,2.3,8.05,8.05,0,0,1,2,5.13A7.33,7.33,0,0,1,77.76,38.51Zm-3.08-24a4.56,4.56,0,0,0-2.89-.84H62.31a.7.7,0,0,0-.78.79v8.85h7.68A8.45,8.45,0,0,0,74,22a4.82,4.82,0,0,0,2.25-4.21A4.07,4.07,0,0,0,74.68,14.46Zm.59,13.88a10,10,0,0,0-6.06-1.56H61.53V36.7c0,.49.24.74.78.74h7.78a9,9,0,0,0,4.84-1.18,4.49,4.49,0,0,0,2.44-4A5.22,5.22,0,0,0,75.27,28.34Z"/><path class="cls-1" d="M88.53,16.34a2.53,2.53,0,0,1-3.47,0,2.37,2.37,0,0,1-.73-1.76,2.4,2.4,0,0,1,.73-1.76,2.55,2.55,0,0,1,3.47,0,2.44,2.44,0,0,1,.73,1.76A2.41,2.41,0,0,1,88.53,16.34Z"/><path class="cls-1" d="M86.82,41c-1.18,0-1.76-.69-1.76-2.11V21.4c0-1.37.58-2,1.76-2s1.71.68,1.71,2V38.88C88.53,40.3,87.94,41,86.82,41Z"/><path class="cls-1" d="M97.46,16.34a2.32,2.32,0,0,1-1.7.69,2.43,2.43,0,0,1-2.5-2.45A2.4,2.4,0,0,1,94,12.82a2.57,2.57,0,0,1,1.77-.68,2.53,2.53,0,0,1,1.7.68,2.36,2.36,0,0,1,.73,1.76A2.33,2.33,0,0,1,97.46,16.34Z"/><path class="cls-1" d="M95.76,41C94.58,41,94,40.3,94,38.88V21.4c0-1.37.59-2,1.77-2s1.7.68,1.7,2V38.88C97.46,40.3,96.87,41,95.76,41Z"/><path class="cls-1" d="M118.25,41H106.94c-1.46,0-2.14-.69-2.14-2.05V12.2c0-1.32.53-2,1.7-2s1.77.68,1.77,2V36.74a.65.65,0,0,0,.73.74h9.25c1.37,0,2,.58,2,1.76S119.62,41,118.25,41Z"/><path class="cls-1" d="M140.08,41c-1.18,0-1.71-.68-1.71-2.05V37.14a15,15,0,0,1-4.12,2.59,10.92,10.92,0,0,1-4.53,1.07,7.71,7.71,0,0,1-4.85-1.42,5.5,5.5,0,0,1-2.25-4.79,6.61,6.61,0,0,1,3.76-6.06,15.43,15.43,0,0,1,7.39-1.66h4.6q-.3-4.85-5.58-4.85a9.63,9.63,0,0,0-3.52.69,5.59,5.59,0,0,0-2.79,2.06c-.39.63-.78.92-1.12.92-1.32,0-2-.63-2-2a3,3,0,0,1,1-1.81c2-2.2,4.8-3.32,8.41-3.32,3.22,0,5.53.88,7,2.54a8.73,8.73,0,0,1,2,5.62V38.9C141.78,40.27,141.2,41,140.08,41Zm-1.71-10.66h-3c-6.06,0-9.09,1.47-9.09,4.3a2.32,2.32,0,0,0,1,2,4,4,0,0,0,2.4.73A10.63,10.63,0,0,0,134.6,36a9.5,9.5,0,0,0,3.77-3.17Z"/><path class="cls-1" d="M163.32,37.48A9.58,9.58,0,0,1,155.84,41c-3.33,0-5.72-1.23-7.09-3.72v1.66c0,1.37-.59,2.06-1.76,2.06s-1.71-.69-1.71-2.06V12c0-1.32.53-2,1.71-2s1.76.68,1.76,2V22.27a8.42,8.42,0,0,1,7.09-3.57,9.91,9.91,0,0,1,7.43,3.18,11.16,11.16,0,0,1,3,7.77A11.42,11.42,0,0,1,163.32,37.48Zm-2.69-13.06a6,6,0,0,0-4.79-2.2,6.71,6.71,0,0,0-5.19,2.05,7.62,7.62,0,0,0-1.9,5.38,8.15,8.15,0,0,0,1.95,5.53,6.27,6.27,0,0,0,5.14,2.3,6,6,0,0,0,4.94-2.4,8.44,8.44,0,0,0,1.75-5.43A7.82,7.82,0,0,0,160.63,24.42Z"/><path class="cls-1" d="M183.82,39.63A13.8,13.8,0,0,1,177.55,41a11,11,0,0,1-6.69-2q-2.79-2-2.79-3.81c0-1.28.69-1.91,2.05-1.91.39,0,.79.29,1.17.88a6.74,6.74,0,0,0,6.13,3.37c3.8,0,5.76-.88,5.76-2.64,0-.88-.88-1.76-2.59-2.54-.68-.24-2-.68-4-1.27a24.14,24.14,0,0,1-5.19-1.95c-1.95-1.08-2.88-2.5-2.88-4.26a5.13,5.13,0,0,1,2.59-4.65,11.41,11.41,0,0,1,6.21-1.46,12.5,12.5,0,0,1,5.38,1.37c2.15,1.08,3.27,2.39,3.27,4a1.72,1.72,0,0,1-1.95,1.91q-.66,0-1.47-1.47c-1-1.66-2.64-2.5-5-2.5-3.51,0-5.27,1-5.27,2.84,0,.64.48,1.17,1.56,1.61a37.35,37.35,0,0,0,3.86,1.22,33.27,33.27,0,0,1,5.92,2.3c2.15,1.32,3.27,2.94,3.27,4.89A5.17,5.17,0,0,1,183.82,39.63Z"/><path class="cls-1" d="M44.32,6.46A13.58,13.58,0,0,0,19.19,13h0a16.33,16.33,0,0,0,.59,4.67c1.19,3.9,1.06,7.12-.37,9.57a7.94,7.94,0,0,1-1.68,2,5.84,5.84,0,0,1-1.16,1,5.67,5.67,0,1,1-3-10.47v0h3.63a1.43,1.43,0,0,0,1.22-1.68h0a18.74,18.74,0,0,1-.61-5.57,13.57,13.57,0,1,0,1.38,25.3,14.08,14.08,0,0,0,7.55-9.69V28h0a13.68,13.68,0,0,0,.08-5.56h0a11.25,11.25,0,0,0-.31-1.32c-1.26-4.1-1.16-7.39.28-9.8a6.94,6.94,0,0,1,4.29-3.18v0a5.65,5.65,0,1,1,1.77,11v0H29.25c-1.43.09-1.45,1-1.4,1.36l0,.12a17.54,17.54,0,0,1,.59,5.84A1.63,1.63,0,0,0,30.21,28V28h2.1a5.24,5.24,0,0,1,1.36.14,5.67,5.67,0,1,1-7,5.68h0V32.27A15.24,15.24,0,0,1,19.9,39,13.56,13.56,0,1,0,41.67,23.82,13.58,13.58,0,0,0,44.32,6.46Z"/></svg>
