<svg xmlns="http://www.w3.org/2000/svg" viewBox="0 0 167 167"><defs><style>.cls-1{fill:#2b9bd6;}.cls-2{fill:#fff;}</style></defs><g id="圖2"><circle class="cls-1" cx="83.5" cy="83.5" r="82.21"/><g id="uZ9fbR.tif"><path class="cls-2" d="M35,23.62h3.7v7.5h.76c4.52,0,9,0,13.57,0a6.53,6.53,0,0,1,1.7.25c1.29.35,2.57.77,3.86,1.15.81.25,1.63.48,2.52.74v-.73l0-8.92h3.7c0,3.44,0,6.88,0,10.32a.58.58,0,0,0,.48.67c2.28.66,4.53,1.38,6.82,2a11.43,11.43,0,0,0,2.1.2v-1.9h28.08c-.17-2.24-.05-4.34,1.69-5.94a5.65,5.65,0,0,1,5.91-1.19c.93-2.49,2.62-4,5.34-4.06s4.58,1.48,5.55,4.07a5.68,5.68,0,0,1,7.46,3.72,1.49,1.49,0,0,0,.22,0,5.57,5.57,0,0,1,7,3.1.59.59,0,0,0,.65.36h6.68l.6,0V38.7h-7.43v.78c0,4.15,0,8.3,0,12.45a11.43,11.43,0,0,1-.58,3.9c-.31.9-.57,1.82-.84,2.73l-.74,2.52h9.58v3.74h-.7c-3.18,0-6.36,0-9.54,0a.58.58,0,0,0-.67.47c-.67,2.31-1.39,4.61-2,6.93a12.21,12.21,0,0,0-.2,2h1.91V95c3.24,1.54,4.33,4,3.44,7.44a5.61,5.61,0,0,1,3.48,2.92,5.66,5.66,0,0,1,.22,4.51c2.55,1,4.08,2.71,4.07,5.48s-1.54,4.49-4,5.41a14.5,14.5,0,0,1,.3,1.58,5.59,5.59,0,0,1-5.67,6.07h-1.82v15h-3.74V128.45c-.45,0-.84,0-1.22,0s-.59.12-.59.56a13.17,13.17,0,0,1-.1,2.35,5.6,5.6,0,0,1-5.68,4.6c-2.45,0-4.9,0-7.35,0a2,2,0,0,1-.8-.21l-6-3c-.17-.09-.36-.17-.62-.28v10.89h-3.75v-.72q0-6.15,0-12.29a.93.93,0,0,0-.42-.84c-1.21-.88-2.39-1.8-3.6-2.67a1.77,1.77,0,0,0-.92-.3c-1.27,0-2.54,0-3.81,0l-.66,0v1.86H64.8c.14,2.2,0,4.3-1.68,5.9a5.69,5.69,0,0,1-5.93,1.23c-.95,2.54-2.69,4.05-5.42,4.06s-4.51-1.5-5.47-4.07a5.73,5.73,0,0,1-4.52-.22,5.65,5.65,0,0,1-2.92-3.5.63.63,0,0,0-.14,0,5.65,5.65,0,0,1-7.13-3.12.66.66,0,0,0-.51-.28q-3.72,0-7.46,0v-3.71c.26,0,.52-.06.78-.07h5.94c.78,0,.78,0,.78-.8,0-4.09,0-8.19,0-12.28a12.69,12.69,0,0,1,.62-4.11c.55-1.68,1-3.38,1.56-5.16h-9a6.11,6.11,0,0,1-.7-.13V98.58c.24,0,.48-.07.72-.07,3.18,0,6.36,0,9.54,0a.64.64,0,0,0,.76-.57c.64-2.21,1.34-4.39,2-6.61a13.56,13.56,0,0,0,.25-2.2H34.93V64.78c-2.21.19-4.32.07-5.91-1.65a5.62,5.62,0,0,1-1.23-5.93c-2.54-1-4.07-2.71-4.06-5.48s1.55-4.48,4.05-5.42a5.76,5.76,0,0,1,3.74-7.49c0-.09,0-.18-.05-.26a5.55,5.55,0,0,1,3.08-6.89.63.63,0,0,0,.39-.69Q34.94,27.3,35,23.62ZM74.21,63c-1.67,0-3.25,0-4.84,0a1,1,0,0,0-.49.22c-1.17.87-2.33,1.76-3.51,2.61a1.21,1.21,0,0,0-.56,1.11c0,7.14,0,14.28,0,21.43v.78H63c0,1.64,0,3.2,0,4.77a1.07,1.07,0,0,0,.25.54C64.1,95.65,65,96.82,65.86,98a1.11,1.11,0,0,0,1,.5h26v1.93a13.4,13.4,0,0,0,2.09-.22c2.25-.63,4.47-1.34,6.71-2,.47-.13.59-.35.59-.81q0-11.22,0-22.45V74.2h1.83c0-1.67,0-3.27,0-4.88a1,1,0,0,0-.25-.48c-.88-1.18-1.78-2.35-2.64-3.55a1.06,1.06,0,0,0-1-.48h-26Zm-30-20.62H33.19a1.91,1.91,0,0,0-1.93,2.49,2,2,0,0,0,2,1.31h11v3.7H29.34a1.87,1.87,0,0,0-.2,3.74,7.89,7.89,0,0,0,.84,0H44.22v3.71h-11a2.5,2.5,0,0,0-.82.1,1.86,1.86,0,0,0-1.25,2,1.89,1.89,0,0,0,1.95,1.66H49.84v3.72H44.26v1.6a2,2,0,0,0,2.17,2.19c2.09,0,4.18,0,6.28,0a2,2,0,0,0,.85-.21q2.8-1.38,5.6-2.8a13.17,13.17,0,0,0,1.76-1.08c2.21-1.63,4.39-3.3,6.61-4.93a1.7,1.7,0,0,1,.91-.3c1.7,0,3.4,0,5.11,0,.21,0,.43,0,.64,0V40.49c-.46,0-.88,0-1.31,0a6.74,6.74,0,0,1-1.49-.17q-8.28-2.46-16.56-5a10.75,10.75,0,0,0-3.18-.48c-4.71,0-9.43,0-14.14,0a6.79,6.79,0,0,0-.78,0,1.83,1.83,0,0,0-1.8,2,1.87,1.87,0,0,0,2,1.74h7.29ZM92.9,104.16v18.66c1.95,0,3.86,0,5.76,0a1.57,1.57,0,0,1,.81.27c1.23.89,2.45,1.78,3.63,2.72a45.54,45.54,0,0,0,7.6,4.81,12,12,0,0,0,6.88,1.59c1.21-.11,2.43,0,3.64-.08a1.72,1.72,0,0,0,1.56-1.47c.07-.73,0-1.48,0-2.28h-5.56v-3.67h16.35a5.28,5.28,0,0,0,.56,0,1.91,1.91,0,0,0,1.73-1.51,1.76,1.76,0,0,0-.81-1.93,2.8,2.8,0,0,0-1.33-.34c-3.4,0-6.8,0-10.21,0h-.68v-3.7h14.67a2.91,2.91,0,0,0,.78-.08,1.86,1.86,0,0,0-.52-3.65H122.85v-3.71h10.64a4.15,4.15,0,0,0,1.11-.12,1.87,1.87,0,0,0,1.31-2A1.9,1.9,0,0,0,134,106c-3.51,0-7,0-10.54,0h-.59v-3.71h.56c2.24,0,4.48,0,6.73,0a1.88,1.88,0,0,0,2-2,1.91,1.91,0,0,0-2.08-1.76H114.14a2.92,2.92,0,0,0-.82.13c-4.63,1.39-9.25,2.8-13.88,4.16-2.1.61-4.14,1.55-6.42,1.33C93,104.1,93,104.13,92.9,104.16Zm-35.58,15v.74c0,3.29,0,6.58,0,9.87a4.05,4.05,0,0,0,.14,1.21,1.85,1.85,0,0,0,2.15,1.2,1.89,1.89,0,0,0,1.49-1.91v-16.7h3.72v5.59h1.6a2,2,0,0,0,2.18-2.2c0-2.08,0-4.15,0-6.23a2.16,2.16,0,0,0-.21-.9q-1.45-3-3-5.92a8,8,0,0,0-.73-1.18q-2.6-3.48-5.2-7a1.5,1.5,0,0,1-.27-.8c0-1.7,0-3.41,0-5.11v-.63H40.49c0,.5,0,1,0,1.46a7.24,7.24,0,0,1-.22,1.48c-1.68,5.64-3.38,11.26-5,16.89a8.55,8.55,0,0,0-.32,2.25c0,4.87,0,9.73,0,14.59a6.79,6.79,0,0,0,0,.78,1.86,1.86,0,0,0,2,1.81,1.91,1.91,0,0,0,1.74-2v-7.29h3.7v.69c0,3.44,0,6.88,0,10.32a1.91,1.91,0,1,0,3.8,0v-11h3.7v14.82a1.9,1.9,0,0,0,1.3,1.9A1.85,1.85,0,0,0,53.61,134c0-4.73,0-9.47,0-14.2v-.69Zm45-74.85h-1.65a2,2,0,0,0-2.16,2.14c0,2.07,0,4.15,0,6.23a2.24,2.24,0,0,0,.22.95c1,2,1.94,3.92,2.93,5.86a9.15,9.15,0,0,0,.82,1.33c1.69,2.26,3.39,4.51,5.07,6.78a1.63,1.63,0,0,1,.28.87c0,1.72,0,3.44,0,5.16,0,.2,0,.4,0,.6h18.7c0-.52,0-1,0-1.49a5.12,5.12,0,0,1,.16-1.1q2.65-8.9,5.32-17.8a2.46,2.46,0,0,0,.12-.71q0-8.13,0-16.27a2,2,0,0,0-.24-1,1.83,1.83,0,0,0-2.11-.88,1.88,1.88,0,0,0-1.37,1.83c0,2.29,0,4.57,0,6.85v.58h-3.71V36c0-1,0-1.91,0-2.87a1.92,1.92,0,0,0-1.37-1.85,1.76,1.76,0,0,0-2,.7,2.78,2.78,0,0,0-.39,1.37c0,3.42,0,6.84,0,10.26v.64h-3.7V29.36a1.91,1.91,0,0,0-1.56-1.92,1.87,1.87,0,0,0-2.08,1.25,4.09,4.09,0,0,0-.14,1.21q0,6.8,0,13.58v.74h-3.71v-.65q0-5.2,0-10.43a1.87,1.87,0,0,0-.8-1.64,1.75,1.75,0,0,0-1.91-.13,1.88,1.88,0,0,0-1,1.79c0,5.35,0,10.69,0,16v.65h-3.69ZM98.18,61c-.1-.22-.18-.41-.27-.59-1-2-2-4-3-6a1.78,1.78,0,0,1-.2-.74c0-2.62,0-5.24,0-7.86A5.35,5.35,0,0,1,96.58,42a6,6,0,0,1,4.51-1.47c1.22,0,1.08.13,1.13-1.1,0-.59-.18-.71-.73-.71-7.63,0-15.26,0-22.89,0H78V61Zm-9.06,41.29H68.91c.1.21.17.38.25.54,1,2,2,4,3,6a1.82,1.82,0,0,1,.21.79c0,2.6,0,5.2,0,7.79A5.24,5.24,0,0,1,70.91,121a6,6,0,0,1-4.9,1.88c-1.25,0-1.1-.27-1.14,1.1,0,.54.17.7.7.7H88.46c.55,0,.68-.17.67-.7q0-10.51,0-21Zm39.24-7.6V78H106V96.83l.51-.11,4.87-1.46a9,9,0,0,1,2.67-.54c4.53,0,9,0,13.58,0ZM61.07,68.88l-.63.29q-3,1.5-6,3a1.86,1.86,0,0,1-.8.2H46a5.32,5.32,0,0,1-2.9-.88,5.75,5.75,0,0,1-2.62-5.32c0-1.42.23-1.26-1.27-1.28-.43,0-.53.15-.53.56q0,9.69,0,19.4c0,.41.12.55.53.55H60.52c.44,0,.56-.15.56-.58,0-3.09,0-6.17,0-9.26Z"/><path class="cls-2" d="M83.56,42.34c.49,0,1,0,1.46,0,.31,0,.44.12.43.43,0,1,0,2,0,3,0,.32-.15.41-.45.41q-1.48,0-3,0c-.31,0-.42-.12-.42-.43q0-1.52,0-3c0-.32.14-.41.44-.4Z"/><path class="cls-2" d="M81.61,106c1.23,0,2.38,0,3.53,0a.53.53,0,0,1,.3.35c0,1,0,2.05,0,3.08a.54.54,0,0,1-.38.38c-1,0-2,0-3.08,0a.5.5,0,0,1-.34-.36C81.6,108.3,81.61,107.18,81.61,106Z"/><path class="cls-2" d="M122.81,85.47c-.5,0-1,0-1.51,0-.31,0-.42-.12-.42-.43,0-1,0-2,0-3,0-.35.15-.45.47-.44,1,0,2,0,2.92,0,.31,0,.48.08.47.44,0,1,0,2,0,3,0,.36-.16.44-.48.43C123.79,85.46,123.3,85.47,122.81,85.47Z"/><path class="cls-2" d="M42.37,81.69V77.94h3.82c0,1.19,0,2.34,0,3.49,0,.09-.18.25-.28.25C44.74,81.7,43.59,81.69,42.37,81.69Z"/></g></g></svg>