<svg xmlns="http://www.w3.org/2000/svg" viewBox="0 0 167 167"><defs><style>.cls-1{fill:#036eb7;}.cls-2{fill:#fff;}</style></defs><g id="文字"><circle class="cls-1" cx="83.5" cy="83.5" r="82.21"/><g id="rBpxeQ.tif"><path class="cls-2" d="M22.6,132.52V120.87h3.87V65.8H57.91V46.17c.48,0,.84-.08,1.19-.08,5.36,0,10.73,0,16.09,0a1.43,1.43,0,0,1,1.53.89c.46,1,1,1.92,1.62,3H62v55H75.63V85.5h15.7V105h13.73V50H88.65c.74-1.34,1.34-2.49,2-3.6a.94.94,0,0,1,.71-.33c5.85,0,11.7,0,17.69,0V65.72h31.43v55.07h3.92v11.73ZM117,69.73v51h3.92V105.08H132.7v15.66h3.83v-51Zm-86.51,0v51h3.92V105.07H46.2v15.67H50v-51Zm110,55.1H26.6v3.78H140.48Zm-27.55-4V117H54.12v3.83Zm-55.06-7.9V69.78H54.09v43.11Zm55.06,0V69.78h-3.8v43.11Zm-51,0h43.11v-3.79H61.94ZM79.67,89.4V105h7.72V89.4Zm45.22,19.66v11.65h3.78V109.06Zm-82.74,11.7V109.11H38.36v11.65Z"/><path class="cls-2" d="M83.53,18.48a7.94,7.94,0,1,1-8,7.9A7.83,7.83,0,0,1,83.53,18.48Zm0,11.79a4,4,0,0,0,3.8-3.9,3.86,3.86,0,1,0-7.71.11A4,4,0,0,0,83.57,30.27Z"/><path class="cls-2" d="M65.87,65.73V61.91H79.5v3.82Z"/><path class="cls-2" d="M65.89,73.6V69.68H79.48V73.6Z"/><path class="cls-2" d="M101.15,69.7v3.92H87.55V69.7Z"/><path class="cls-2" d="M65.92,77.54H79.51v3.87H65.92Z"/><path class="cls-2" d="M87.49,81.39V77.58h13.63v3.81Z"/><path class="cls-2" d="M101.15,61.89v3.86H87.51V61.89Z"/><path class="cls-2" d="M128.74,81.48v3.94h3.85V81.48Zm-3.93,0H121v3.88h3.84Zm-3.89,11.75h3.85v-3.9h-3.85Zm7.82-3.91v3.94h3.85V89.35Zm-7.81,11.8h3.86V97.21h-3.86Zm7.81-3.94v3.94h3.85V97.21Zm0-19.69h3.85V73.69h-3.85Zm-3.94,0V73.68H121v3.89Z"/><path class="cls-2" d="M34.44,89.34v3.91H38.3V89.34Zm11.67,0H42.25v3.93h3.86ZM38.3,97.24H34.43v3.88H38.3Zm3.93,0v4h3.86v-4Zm0-15.74v4h3.82v-4Zm0-7.8v3.9h3.83v-3.9Zm-4,3.9V73.69H34.43v3.87ZM34.42,85.4h3.85V81.49H34.42Z"/><path class="cls-2" d="M128.74,81.48h3.85v3.94h-3.85Z"/><path class="cls-2" d="M124.81,81.51v3.88H121V81.51Z"/><path class="cls-2" d="M120.92,93.26v-3.9h3.85v3.9Z"/><path class="cls-2" d="M128.74,89.35h3.85v3.94h-3.85Z"/><path class="cls-2" d="M120.93,101.15V97.21h3.86v3.94Z"/><path class="cls-2" d="M128.74,97.21h3.85v3.94h-3.85Z"/><path class="cls-2" d="M128.73,77.52V73.69h3.85v3.83Z"/><path class="cls-2" d="M124.79,77.57H121V73.68h3.82Z"/><path class="cls-2" d="M34.44,89.34H38.3v3.91H34.44Z"/><path class="cls-2" d="M46.11,89.35v3.93H42.25V89.35Z"/><path class="cls-2" d="M38.3,97.24v3.88H34.43V97.24Z"/><path class="cls-2" d="M42.23,97.2h3.86v4H42.23Z"/><path class="cls-2" d="M42.27,81.46h3.82v4H42.27Z"/><path class="cls-2" d="M42.24,73.66h3.83v3.9H42.24Z"/><path class="cls-2" d="M38.28,77.56H34.43V73.69h3.85Z"/><path class="cls-2" d="M34.42,85.4V81.49h3.85V85.4Z"/></g></g></svg>