<?xml version="1.0" standalone="no"?>
<!DOCTYPE svg PUBLIC "-//W3C//DTD SVG 20010904//EN"
 "http://www.w3.org/TR/2001/REC-SVG-20010904/DTD/svg10.dtd">
<svg version="1.0" xmlns="http://www.w3.org/2000/svg"
 width="83.000000pt" height="83.000000pt" viewBox="0 0 83.000000 83.000000"
 preserveAspectRatio="xMidYMid meet">
<metadata>
Created by potrace 1.11, written by Peter Selinger 2001-2013
</metadata>
<g transform="translate(0.000000,83.000000) scale(0.100000,-0.100000)"
fill="#000000" stroke="none">
<path d="M494 814 c-23 -8 -58 -31 -77 -50 -70 -71 -89 -149 -64 -267 21 -97
3 -157 -60 -198 -49 -33 -107 -19 -136 31 -21 34 -21 62 -3 99 18 34 54 51
111 51 33 0 47 5 54 19 6 10 8 20 6 23 -2 2 -6 20 -9 41 -2 20 -8 42 -12 48
-10 16 -131 6 -169 -14 -42 -22 -90 -71 -111 -115 -25 -49 -25 -153 0 -204 61
-127 229 -175 340 -99 102 71 132 165 97 314 -26 111 30 197 129 197 47 0 90
-47 90 -97 -1 -66 -49 -103 -135 -103 -43 0 -60 -15 -49 -43 3 -8 6 -32 8 -56
2 -23 6 -44 9 -48 4 -3 28 -8 54 -9 38 -3 54 -10 76 -34 39 -44 37 -92 -6
-135 -29 -29 -39 -33 -68 -28 -19 3 -42 9 -51 14 -21 11 -48 60 -48 86 0 14
-4 13 -18 -8 -21 -32 -39 -49 -74 -72 l-28 -17 26 -39 c43 -65 97 -95 181 -99
59 -3 80 0 118 18 115 56 166 195 114 310 -11 24 -27 52 -36 62 -14 15 -12 20
15 55 39 50 55 104 49 163 -17 159 -173 257 -323 204z"/>
</g>
</svg>
