<svg xmlns="http://www.w3.org/2000/svg" viewBox="0 0 167 167"><defs><style>.cls-1{fill:#2b9bd6;}.cls-2{fill:#fff;}</style></defs><g id="文字"><circle class="cls-1" cx="83.18" cy="83.05" r="82.21"/><path class="cls-2" d="M125.45,41A30.22,30.22,0,0,0,69.52,55.59h0A36.12,36.12,0,0,0,70.81,66c2.66,8.68,2.37,15.84-.83,21.29a17.2,17.2,0,0,1-3.73,4.41,12.48,12.48,0,0,1-2.59,2.18,12.61,12.61,0,1,1-6.74-23.3v0H65a3.2,3.2,0,0,0,2.74-3.74h0a40.11,40.11,0,0,1-1.36-12.39,30.21,30.21,0,1,0,3.05,56.29A31.39,31.39,0,0,0,86.22,89.11V89h0a30.36,30.36,0,0,0,.18-12.35h0a26.25,26.25,0,0,0-.69-2.94c-2.8-9.11-2.59-16.45.62-21.81A15.53,15.53,0,0,1,96,44.76v.06A12.58,12.58,0,1,1,99.9,69.38v0h-8c-3.19.2-3.24,2.24-3.12,3l.06.26a38.68,38.68,0,0,1,1.32,13c.15.93.79,3,3.87,3.14V89h4.69v0a12.48,12.48,0,0,1,3,.33,12.61,12.61,0,1,1-15.51,12.64h0V98.39a34,34,0,0,1-15.13,15,30.18,30.18,0,1,0,48.45-33.79A30.18,30.18,0,0,0,125.45,41Z"/></g></svg>