<svg xmlns="http://www.w3.org/2000/svg" viewBox="0 0 167 167"><defs><style>.cls-1{fill:#036eb7;}.cls-2{fill:#fff;}</style></defs><g id="圖2"><circle class="cls-1" cx="83.5" cy="83.5" r="82.21"/><g id="_5o5xT9.tif" data-name="5o5xT9.tif"><path class="cls-2" d="M61.46,38.71l-1.3-1.13C41.3,44.84,27.87,68.42,30.26,90.07c2.32,21.12,19.39,41.76,36.47,44.12,1.35-3.92.07-6-3.85-7.87C32.64,112.14,27.25,72,52.3,49.74,55.83,46.6,58.43,42.41,61.46,38.71Zm46.9-.5L107,39.29c2.57,3.47,4.62,7.54,7.8,10.31,25,21.76,19.95,62-9.9,76.45-4.1,2-5.17,4.16-3.84,8.16,18.16-4.47,34.32-24.31,35.75-43.63C138.58,67.24,126.89,45.76,108.36,38.21ZM86.09,131.79c0-4.67.15-9.35-.1-14-.07-1.33-1.31-2.6-2-3.9-.77,1.24-2.17,2.46-2.19,3.71q-.28,14.23,0,28.49c0,1.2,1.45,2.38,2.23,3.58.7-1.29,1.92-2.54,2-3.85C86.24,141.15,86.09,136.47,86.09,131.79ZM87,92.42c0-3.16.31-6.36-.15-9.44-.19-1.27-2.06-2.29-3.16-3.42-1,1.1-2.75,2.17-2.8,3.31-.29,6.15-.31,12.32,0,18.46.07,1.3,1.91,2.5,2.94,3.75,1.06-1.22,2.81-2.32,3-3.67C87.35,98.48,87,95.42,87,92.42Zm-9.17,36.36c0-3.92.15-7.86-.1-11.76-.06-1-1.31-2-2-3-.77.92-2.2,1.82-2.22,2.75q-.27,11.76,0,23.53c0,1,1.31,1.94,2,2.91.78-1,2.16-2,2.24-3.12C78,136.33,77.87,132.55,77.86,128.78Zm12.07,0c0,3.77-.17,7.55.11,11.3.08,1.09,1.44,2.09,2.22,3.13.69-1,1.95-2,2-2.94.17-7.69.19-15.38,0-23.06,0-1.08-1.46-2.12-2.24-3.18-.69,1.15-1.89,2.26-2,3.45C89.76,121.24,89.92,125,89.93,128.78Z"/><path class="cls-2" d="M85.28,17.34C97.94,28.44,105.16,42.58,107.73,59c.93,5.9.38,12,.77,18a8.14,8.14,0,0,0,2,4.59,36.78,36.78,0,0,1,10,23.22c.32,6.06-1.79,7.31-7.34,4.93-4.27-1.84-8.62-3.52-13-5-4.73-1.58-5.2-2.42-3.36-7.13,9.95-25.45,7.09-49-10.4-70.41-.66-.81-1.42-1.53-2.41-2.58C74.18,35.08,68.11,47,66.22,61A69.34,69.34,0,0,0,71.5,98.17c1.4,3.28.93,5.26-2.88,6.44-5.15,1.61-10.1,3.85-15.18,5.72-4.51,1.66-6.29.36-6-4.43A42.09,42.09,0,0,1,57.2,82a10.15,10.15,0,0,0,2.06-6.25c-1-23,6.24-42.66,23.31-58.41ZM64.6,98.82c-1.2-3.77-2.27-7.11-3.34-10.45L60,88q-3.07,6.93-6.13,13.87l1.21.63ZM113,102.44l1.17-.66L107.8,88l-1.27.54-3.1,10.21Z"/><path class="cls-2" d="M61.46,38.71c-3,3.7-5.63,7.89-9.16,11-25,22.25-19.66,62.4,10.58,76.58,3.92,1.83,5.2,4,3.85,7.87-17.08-2.36-34.15-23-36.47-44.12-2.39-21.65,11-45.23,29.9-52.49Z"/><path class="cls-2" d="M108.36,38.21c18.53,7.55,30.22,29,28.49,52.37-1.43,19.32-17.59,39.16-35.75,43.63-1.33-4-.26-6.18,3.84-8.16,29.85-14.45,34.87-54.69,9.9-76.45-3.18-2.77-5.23-6.84-7.8-10.31Z"/><path class="cls-2" d="M86.09,131.79c0,4.68.15,9.36-.09,14-.07,1.31-1.29,2.56-2,3.85-.78-1.2-2.21-2.38-2.23-3.58q-.28-14.25,0-28.49c0-1.25,1.42-2.47,2.19-3.71.71,1.3,2,2.57,2,3.9C86.24,122.44,86.09,127.12,86.09,131.79Z"/><path class="cls-2" d="M77.86,128.78c0,3.77.18,7.55-.1,11.31-.08,1.09-1.46,2.08-2.24,3.12-.71-1-2-1.93-2-2.91q-.25-11.76,0-23.53c0-.93,1.45-1.83,2.22-2.75.71,1,2,2,2,3C78,120.92,77.86,124.86,77.86,128.78Z"/><path class="cls-2" d="M89.93,128.78c0-3.76-.17-7.54.09-11.3.08-1.19,1.28-2.3,2-3.45.78,1.06,2.21,2.1,2.24,3.18.19,7.68.17,15.37,0,23.06,0,1-1.28,2-2,2.94-.78-1-2.14-2-2.22-3.13C89.76,136.33,89.93,132.55,89.93,128.78Z"/><path class="cls-2" d="M64.6,98.82l-9.54,3.68-1.21-.63Q56.91,94.94,60,88l1.28.37C62.33,91.71,63.4,95.05,64.6,98.82Z"/><path class="cls-2" d="M113,102.44l-9.52-3.67,3.1-10.21L107.8,88l6.32,13.76Z"/></g></g></svg>