<?xml version="1.0" encoding="utf-8"?>
<!-- Generator: Adobe Illustrator 16.0.0, SVG Export Plug-In . SVG Version: 6.00 Build 0)  -->
<!DOCTYPE svg PUBLIC "-//W3C//DTD SVG 1.1//EN" "http://www.w3.org/Graphics/SVG/1.1/DTD/svg11.dtd">
<svg version="1.1" id="圖層_1" xmlns="http://www.w3.org/2000/svg" xmlns:xlink="http://www.w3.org/1999/xlink" x="0px" y="0px"
	 width="617.969px" height="166.492px" viewBox="0 0 617.969 166.492" enable-background="new 0 0 617.969 166.492"
	 xml:space="preserve">
<path fill="#7DCCF3" d="M243.642,125.322c-5.64,4.34-13.781,6.434-24.285,6.434h-23.238c-3.682,0-5.505-1.84-5.505-5.506V54.713
	c0-3.682,1.824-5.522,5.505-5.522h29.013c6.841,0,12.346,1.723,16.534,4.865c4.729,3.933,7.228,9.187,7.228,15.62
	c0,9.441-4.476,15.876-13.139,19.287c5,1.3,8.528,3.41,10.909,6.182c3.395,4.188,5.236,8.781,5.236,13.779
	C251.9,115.612,249.164,121.136,243.642,125.322z M235.365,60.742c-1.823-1.435-4.441-2.229-7.75-2.229h-25.467
	c-1.436,0-2.094,0.795-2.094,2.094v23.761h20.62c4.999,0,9.322-1.047,12.869-3.412c3.935-2.617,6.029-6.433,6.029-11.282
	C239.571,65.994,238.119,62.972,235.365,60.742z M236.937,98.014c-3.682-2.751-9.053-4.188-16.264-4.188h-20.62v26.65
	c0,1.302,0.658,1.958,2.094,1.958h20.891c5.252,0,9.592-1.045,12.986-3.157c4.34-2.617,6.552-6.164,6.552-10.624
	C242.577,104.718,240.619,101.173,236.937,98.014z"/>
<g>
	<path fill="#7DCCF3" d="M272.537,62.73c-1.318,1.3-2.888,1.84-4.594,1.84c-1.841,0-3.412-0.541-4.712-1.84
		c-1.317-1.3-1.976-2.887-1.976-4.728c0-1.841,0.659-3.411,1.976-4.713c1.3-1.198,2.871-1.858,4.712-1.858
		c1.705,0,3.275,0.66,4.594,1.858c1.3,1.302,1.975,2.872,1.975,4.713C274.513,59.843,273.837,61.431,272.537,62.73z
		 M267.944,131.756c-3.159,0-4.712-1.823-4.712-5.64V83.604c0-3.681,1.554-5.521,4.712-5.521c3.022,0,4.594,1.84,4.594,5.521v42.512
		C272.537,129.933,270.965,131.756,267.944,131.756z"/>
	<path fill="#7DCCF3" d="M294.356,62.73c-1.318,1.3-2.887,1.84-4.576,1.84c-1.841,0-3.43-0.541-4.746-1.84
		c-1.3-1.3-1.959-2.887-1.959-4.728c0-1.841,0.658-3.411,1.959-4.713c1.316-1.198,2.905-1.858,4.746-1.858
		c1.689,0,3.258,0.66,4.576,1.858c1.334,1.302,1.977,2.872,1.977,4.713C296.333,59.843,295.69,61.431,294.356,62.73z
		 M289.781,131.756c-3.159,0-4.746-1.823-4.746-5.64V83.604c0-3.681,1.587-5.521,4.746-5.521c3.006,0,4.576,1.84,4.576,5.521v42.512
		C294.356,129.933,292.786,131.756,289.781,131.756z"/>
</g>
<path fill="#7DCCF3" d="M347.452,131.756h-30.348c-3.918,0-5.76-1.84-5.76-5.506V54.841c0-3.547,1.437-5.388,4.577-5.388
	c3.176,0,4.745,1.841,4.745,5.388v65.634c0,1.301,0.658,1.959,1.976,1.959h24.809c3.681,0,5.521,1.569,5.521,4.729
	C352.973,130.304,351.134,131.756,347.452,131.756z"/>
<path fill="#7DCCF3" d="M404.727,131.756c-3.159,0-4.594-1.823-4.594-5.506v-4.729c-3.158,2.871-6.84,5.118-11.045,6.959
	c-4.307,1.96-8.395,2.888-12.176,2.888c-5.253,0-9.594-1.182-13.021-3.817c-4.054-2.869-6.028-7.21-6.028-12.852
	c0-7.092,3.31-12.463,10.099-16.279c5.404-2.889,11.956-4.477,19.827-4.477h12.345c-0.541-8.646-5.521-12.987-14.963-12.987
	c-3.276,0-6.435,0.66-9.457,1.841c-3.428,1.316-5.911,3.143-7.48,5.522c-1.048,1.688-2.113,2.482-3.024,2.482
	c-3.546,0-5.253-1.704-5.253-5.369c0-1.319,0.811-2.889,2.636-4.865c5.37-5.912,12.868-8.934,22.579-8.934
	c8.646,0,14.845,2.365,18.763,6.838c3.546,4.442,5.372,9.44,5.372,15.081v32.696C409.305,129.933,407.75,131.756,404.727,131.756z
	 M400.133,103.148h-8.005c-16.282,0-24.421,3.934-24.421,11.551c0,2.348,0.931,4.07,2.753,5.388
	c1.825,1.299,3.935,1.959,6.452,1.959c4.188,0,8.511-1.182,13.104-3.547c4.478-2.229,7.871-5.116,10.117-8.527V103.148z"/>
<path fill="#7DCCF3" d="M468.193,122.434c-5.506,6.301-12.228,9.322-20.081,9.322c-8.934,0-15.35-3.292-19.016-9.98v4.459
	c0,3.683-1.589,5.522-4.747,5.522c-3.157,0-4.575-1.84-4.575-5.522V54.258c0-3.546,1.418-5.387,4.575-5.387
	c3.158,0,4.747,1.84,4.747,5.387v27.358c4.711-6.3,10.993-9.593,19.016-9.593c7.854,0,14.575,2.887,19.944,8.544
	c5.27,5.761,8.022,12.736,8.022,20.857C476.078,109.565,473.427,116.523,468.193,122.434z M460.979,87.374
	c-3.428-3.934-7.633-5.894-12.868-5.894c-5.91,0-10.506,1.824-13.916,5.505c-3.428,3.683-5.1,8.546-5.1,14.439
	c0,5.775,1.672,10.775,5.237,14.845c3.409,4.205,8.021,6.164,13.778,6.164c5.372,0,9.846-2.094,13.259-6.433
	c3.158-3.935,4.713-8.801,4.713-14.576C466.083,96.055,464.374,91.327,460.979,87.374z"/>
<path fill="#7DCCF3" d="M524.852,128.21c-4.61,2.365-10.25,3.546-16.819,3.546c-6.959,0-12.987-1.705-17.97-5.387
	c-4.998-3.547-7.481-6.94-7.481-10.233c0-3.428,1.841-5.118,5.487-5.118c1.064,0,2.129,0.777,3.159,2.365
	c3.696,6.046,9.204,9.053,16.433,9.053c10.217,0,15.47-2.364,15.47-7.076c0-2.383-2.348-4.745-6.957-6.84
	c-1.825-0.642-5.37-1.84-10.623-3.41c-6.572-1.843-11.284-3.682-13.936-5.237c-5.234-2.904-7.718-6.704-7.718-11.433
	c0-5.371,2.231-9.592,6.941-12.481c4.086-2.601,9.594-3.917,16.685-3.917c4.713,0,9.459,1.316,14.44,3.664
	c5.776,2.907,8.781,6.435,8.781,10.64c0,3.412-1.823,5.119-5.253,5.119c-1.181,0-2.499-1.319-3.933-3.953
	c-2.636-4.442-7.095-6.689-13.527-6.689c-9.44,0-14.151,2.619-14.151,7.618c0,1.705,1.283,3.158,4.186,4.324
	c1.065,0.54,4.476,1.586,10.352,3.291c7.499,2.365,12.77,4.324,15.894,6.166c5.791,3.546,8.799,7.888,8.799,13.14
	C533.11,120.999,530.358,125.322,524.852,128.21z"/>
<linearGradient id="SVGID_1_" gradientUnits="userSpaceOnUse" x1="-104.8789" y1="154.541" x2="36.7314" y2="154.541" gradientTransform="matrix(1 0 0 -1 116 245.4922)">
	<stop  offset="0.292" style="stop-color:#64BFAA"/>
	<stop  offset="0.8294" style="stop-color:#7DCCF3"/>
</linearGradient>
<path fill="url(#SVGID_1_)" d="M146.564,38.445c-12.028-19.512-37.597-25.577-57.105-13.557
	c-12.216,7.527-19.14,20.339-19.696,33.655c-0.008-0.008-0.023-0.016-0.04-0.016c-0.094,5.175,0.706,10.711,1.812,14.263
	c3.646,11.917,3.254,21.758-1.137,29.237c-1.49,2.533-3.301,4.51-5.128,6.062c-1.051,1.113-2.18,2.156-3.552,2.995
	c-8.14,5.02-18.811,2.494-23.829-5.646c-5.002-8.139-2.485-18.817,5.654-23.828c2.799-1.717,5.865-2.486,8.915-2.517l-0.016-0.062
	h11.072c4.516-0.831,3.756-5.145,3.756-5.145l0,0c-1.278-4.265-2.164-10.977-1.867-17.007c-11.166-3.615-23.781-2.501-34.547,4.14
	c-19.517,12.03-25.593,37.599-13.542,57.107c11.048,17.938,33.552,24.472,52.284,16.058c11.746-5.559,20.261-16.811,23.091-29.615
	v-0.211h0.047c1.191-5.48,1.364-11.236,0.25-16.967h0.07c-0.274-1.515-0.604-2.895-0.948-4.047
	c-3.85-12.514-3.56-22.589,0.847-29.944c4.814-8.031,12.765-9.662,13.094-9.729l0.023,0.086c7.378-2.317,15.659,0.498,19.9,7.376
	c5.018,8.146,2.485,18.811-5.653,23.828c-2.76,1.702-5.818,2.47-8.837,2.509v0.071h-10.977c-4.383,0.266-4.446,3.065-4.289,4.155
	c0.031,0.125,0.055,0.235,0.086,0.361c1.38,4.477,2.29,11.55,1.819,17.854c0.196,1.278,1.074,4.108,5.309,4.312v0.133h6.437v0.031
	c1.373-0.015,2.76,0.118,4.148,0.439c9.292,2.211,15.047,11.542,12.828,20.849c-2.195,9.3-11.519,15.062-20.833,12.851
	c-7.778-1.851-13.055-8.695-13.29-16.332h-0.031v-4.885c-4.571,8.86-11.816,16.207-20.771,20.582
	c4.987,11.715,15.188,21.006,28.51,24.166c22.307,5.293,44.678-8.5,49.97-30.799c3.536-14.96-1.529-29.921-11.949-39.769
	C153.526,78.404,157.384,55.987,146.564,38.445z"/>
</svg>
